<?xml version="1.0" standalone="no"?>
<!DOCTYPE svg PUBLIC "-//W3C//DTD SVG 20010904//EN"
 "http://www.w3.org/TR/2001/REC-SVG-20010904/DTD/svg10.dtd">
<svg version="1.0" xmlns="http://www.w3.org/2000/svg"
 width="235.000000pt" height="198.000000pt" viewBox="0 0 235.000000 198.000000"
 preserveAspectRatio="xMidYMid meet">

<g transform="translate(0.000000,198.000000) scale(0.100000,-0.100000)"
fill="#000000" stroke="none">
<path d="M503 1685 c-76 -33 -93 -128 -34 -189 24 -25 31 -41 31 -71 0 -22 7
-53 15 -68 13 -26 13 -34 -1 -78 -19 -58 -14 -107 15 -148 l21 -29 -21 -89
c-30 -125 -31 -256 -1 -348 26 -78 85 -166 147 -216 51 -41 163 -94 240 -114
154 -39 402 -39 560 1 250 64 405 247 405 478 0 64 -25 204 -46 256 -14 35
-14 41 5 79 25 48 26 75 6 134 -13 40 -13 48 0 73 8 16 15 47 15 69 0 30 7 46
31 71 60 62 42 157 -37 190 -92 39 -183 -47 -151 -144 14 -42 66 -82 108 -82
24 0 29 -4 29 -24 0 -24 -19 -86 -26 -86 -3 0 -22 12 -43 26 -49 32 -107 40
-165 24 -37 -10 -48 -9 -74 4 -150 78 -514 80 -690 5 -41 -18 -52 -19 -89 -8
-57 15 -116 7 -164 -25 -21 -14 -40 -26 -43 -26 -7 0 -26 62 -26 86 0 20 5 24
29 24 42 0 94 40 108 83 32 95 -63 182 -154 142z m108 -44 c37 -37 38 -79 3
-120 -54 -65 -154 -28 -154 57 0 85 91 122 151 63z m1263 3 c58 -59 20 -154
-63 -154 -32 0 -44 6 -65 31 -35 41 -34 83 3 120 39 38 88 40 125 3z m-450
-228 c196 -55 323 -173 387 -361 100 -291 24 -526 -210 -643 -125 -63 -203
-77 -421 -76 -172 0 -191 2 -275 28 -111 34 -174 67 -240 128 -122 111 -161
277 -116 495 54 259 195 396 456 443 80 14 350 5 419 -14z m-674 -45 c0 -5
-10 -15 -22 -23 -43 -28 -108 -103 -136 -155 -15 -29 -30 -53 -33 -53 -11 0
-29 51 -29 81 0 47 29 98 73 130 32 23 50 29 94 29 29 0 53 -4 53 -9z m1000
-13 c18 -13 42 -35 53 -50 25 -33 34 -116 15 -141 -12 -16 -17 -12 -57 48 -23
36 -66 84 -94 107 -29 22 -53 44 -55 49 -2 5 21 9 51 9 40 0 63 -6 87 -22z"/>
<path d="M880 1197 c-93 -26 -163 -88 -209 -187 -23 -48 -26 -68 -26 -160 0
-97 2 -110 30 -163 36 -73 109 -140 181 -166 130 -49 538 -49 669 0 148 55
245 230 216 391 -22 126 -88 218 -191 267 -55 26 -56 26 -340 28 -205 2 -298
-1 -330 -10z m641 -32 c69 -24 123 -76 161 -153 30 -60 33 -75 33 -157 0 -76
-4 -99 -26 -145 -37 -79 -72 -115 -142 -150 -75 -36 -163 -49 -342 -50 -324 0
-443 46 -513 199 -21 45 -26 71 -27 136 0 104 23 169 82 235 89 99 143 111
493 105 185 -3 245 -7 281 -20z"/>
<path d="M852 975 c-39 -32 -48 -74 -28 -114 20 -37 44 -51 91 -51 68 0 110
70 80 133 -28 60 -93 74 -143 32z m112 -27 c24 -34 20 -73 -10 -97 -35 -27
-59 -26 -89 4 -48 47 -22 115 45 115 29 0 43 -6 54 -22z"/>
<path d="M1400 972 c-41 -42 -42 -92 -1 -133 85 -84 216 36 138 126 -15 18
-36 28 -64 32 -37 5 -45 2 -73 -25z m123 -34 c20 -27 20 -29 4 -63 -28 -58
-105 -58 -127 1 -31 80 72 131 123 62z"/>
<path d="M1025 770 c-24 -38 39 -140 102 -166 101 -43 225 28 227 130 l1 41
-162 3 c-108 2 -164 -1 -168 -8z m310 -42 c-37 -123 -213 -148 -270 -39 -31
61 -30 61 131 61 l145 0 -6 -22z"/>
</g>
</svg>
